<?xml version="1.0" standalone="no"?>
<!DOCTYPE svg PUBLIC "-//W3C//DTD SVG 20010904//EN"
 "http://www.w3.org/TR/2001/REC-SVG-20010904/DTD/svg10.dtd">
<svg version="1.0" xmlns="http://www.w3.org/2000/svg"
 width="221.000000pt" height="221.000000pt" viewBox="0 0 221.000000 221.000000"
 preserveAspectRatio="xMidYMid meet">
<metadata>
Created by potrace 1.11, written by Peter Selinger 2001-2013
</metadata>
<g transform="translate(0.000000,221.000000) scale(0.100000,-0.100000)"
fill="#000000" stroke="none">
<path d="M648 1934 c-231 -58 -424 -205 -539 -409 -41 -74 -86 -200 -97 -275
-12 -75 -7 -262 8 -320 8 -30 15 -57 15 -60 4 -21 32 -94 53 -135 111 -223
318 -390 557 -450 81 -21 257 -28 330 -14 28 5 59 11 71 13 68 13 201 73 277
124 102 71 215 197 274 307 25 49 73 180 73 203 1 45 5 46 277 46 l258 1 -1
45 c0 61 -7 87 -40 156 -51 107 -164 196 -285 223 -24 6 -77 8 -118 6 -138 -9
-263 -90 -337 -222 l-33 -57 -135 -1 c-74 0 -138 -4 -142 -7 -3 -4 -6 -29 -6
-55 0 -95 -1 -93 35 -91 17 0 74 0 125 -1 105 -1 102 2 64 -81 -92 -200 -313
-327 -532 -306 -244 22 -446 210 -485 451 -1 6 -3 28 -3 51 l-2 41 -73 -1 -72
-1 1 45 c2 96 22 167 76 272 74 143 213 267 362 323 84 31 115 37 229 40 200
6 368 -64 513 -213 l62 -64 60 48 60 48 -40 48 c-40 48 -115 115 -173 155
-184 127 -445 172 -667 117z m1253 -711 c40 -18 119 -85 119 -102 0 -4 -103
-7 -229 -7 l-229 1 20 28 c68 95 206 130 319 80z"/>
</g>
</svg>
